<svg xmlns="http://www.w3.org/2000/svg" width="43.563" height="49.16" viewBox="0 0 43.563 49.16">
  <defs>
    <style>
      .cls-1 {
        fill: #b5241e;
        fill-rule: evenodd;
      }
    </style>
  </defs>
  <path id="health2.svg" class="cls-1" d="M576.026,2047.62c-2.1-3.43-4.6-6.89-5.641-10.84a22.571,22.571,0,0,1,2.351-16.27,0.7,0.7,0,0,0-1.194-.71,23.524,23.524,0,0,0,.216,23.47c0.692,1.24,1.468,2.43,2.214,3.63-10.785,2.8-21.493,2.23-32.431.66a35.732,35.732,0,0,0,3.42-6.98,28.929,28.929,0,0,0-1.372-20.78c-0.373-.81-1.564-0.1-1.193.71,3.864,8.44,2.909,17.82-1.653,25.85-3.665,6.44-6.8,14.38-3.849,21.8,0.328,0.82,1.665.46,1.332-.37-1.837-4.62-1.069-10.18.584-14.75a28.931,28.931,0,0,1,1.985-4.17c5.317,2.08,8.9,8.05,11.6,12.81,1.01,1.78,1.708,3.9,2.83,5.59,0.922,1.38,2.07,1.24,3.754.95a0.657,0.657,0,0,0,.483-0.49c0.93-5.28,4.31-9.69,7.975-13.4,2.012-2.04,4.606-4.89,7.329-6.11a18.765,18.765,0,0,1,2.009,4.56,32.155,32.155,0,0,1,.42,14.82c-0.193.87,1.138,1.25,1.332,0.37C579.957,2061.49,579.551,2053.38,576.026,2047.62Zm-8.369,4.55c-3.627,3.44-7.138,7.55-8.811,12.36-0.462,1.34-.769,3.37-2.528,1.8-0.562-.5-0.884-1.88-1.233-2.57a64.857,64.857,0,0,0-4.063-6.94,29.941,29.941,0,0,0-6.64-7.48c8.994,1.12,17.851,1.44,26.741-.35C569.869,2050.02,568.7,2051.19,567.657,2052.17Zm-10.176-10.72a0.7,0.7,0,0,0,0-1.4A0.7,0.7,0,0,0,557.481,2041.45Zm-16.841,12.53a12.67,12.67,0,0,0-1.71,7.32c0.062,0.89,1.444.9,1.382,0a11.3,11.3,0,0,1,1.521-6.61A0.694,0.694,0,0,0,540.64,2053.98Zm-1.591,9.66v0.05a0.691,0.691,0,0,0,1.382,0v-0.05A0.691,0.691,0,0,0,539.049,2063.64Z" transform="translate(-535.75 -2019.47)"/>
</svg>
