<svg xmlns="http://www.w3.org/2000/svg" width="58.5" height="53.25" viewBox="0 0 58.5 53.25">
  <defs>
    <style>
      .cls-1 {
        fill: #b5241e;
        fill-rule: evenodd;
      }
    </style>
  </defs>
  <path id="health1.svg" class="cls-1" d="M287.961,2016c-6.449-.97-13.418,2.45-15.66,8.53a13.794,13.794,0,0,0-6.17-6.85c-4.552-2.55-9.024-2.58-13.9-.53-3.762,1.58-6.714,5.75-8.278,9.37-1.976,4.58-.977,10.18.251,14.82a0.7,0.7,0,0,0,1.338-.37c-2.048-7.74-1.709-16.28,5.348-21.47,3.313-2.43,9.019-3.29,12.706-1.61,3.863,1.77,7.7,5.22,8,9.73a0.694,0.694,0,0,0,1.387,0c0.728-8.26,10.865-12.67,17.968-9.3,7.547,3.57,10.733,13.7,8.249,21.37-1.568,4.85-7.789,3.64-11.882,3.67-2.324.01-4.649,0.04-6.973,0.02-0.312-.01-1.6,0-1.561.02-0.366-.23-1.307-3-1.527-3.56a0.7,0.7,0,0,0-1.363.18c-0.455,3.59-1.4,7.09-2.14,10.63-0.722-5.95-1.018-11.95-2.01-17.86a0.7,0.7,0,0,0-1.338,0q-1.432,6.2-2.864,12.39-0.641-2.88-1.28-5.75a0.7,0.7,0,0,0-1.338,0c-0.148.95-.386,3.54-1.031,3.99-0.439.31-2.1-.01-2.67-0.02q-3.779-.015-7.556-0.05c-2.752-.01-7.075-0.56-6.952,3.56,0.064,2.17,2.066,4.36,3.346,5.95a37.991,37.991,0,0,0,6.4,6.14c4.8,3.75,10.148,6.66,15.329,9.83a0.7,0.7,0,0,0,.7,0,76.679,76.679,0,0,0,23.627-20.12c0.552-.69-0.424-1.68-0.981-0.98a72.811,72.811,0,0,1-15.114,14.8c-1.861,1.29-5.93,4.98-8.244,4.67-1.087-.15-2.586-1.54-3.537-2.11-1.457-.86-2.911-1.73-4.345-2.63a64.781,64.781,0,0,1-9.029-6.58c-1.668-1.5-9.992-9.46-4.507-11.16,2.07-.64,5.453.04,7.624,0.05,2.154,0.01,4.307.03,6.46,0.04a0.713,0.713,0,0,0,.669-0.51c0.166-.53.315-1.05,0.465-1.57q0.642,2.88,1.283,5.77a0.7,0.7,0,0,0,1.338,0q1.361-5.895,2.722-11.78c0.783,6.17,1.063,12.39,2.091,18.52,0.141,0.85,1.274.52,1.363-.18,0.526-4.18,1.715-8.24,2.48-12.37a3.1,3.1,0,0,0,2.386,2.06c3.141,0.51,6.821,0,10-.02,2.921-.02,6.8.63,9.238-1.34,2.114-1.71,2.537-4.73,2.759-7.27C301.99,2027.55,297.283,2017.41,287.961,2016Z" transform="translate(-242.844 -2015.69)"/>
</svg>
