<svg xmlns="http://www.w3.org/2000/svg" width="27.969" height="28.18" viewBox="0 0 27.969 28.18">
  <defs>
    <style>
      .cls-1 {
        fill: #fff;
        fill-rule: evenodd;
      }
    </style>
  </defs>
  <path id="instagram.svg" class="cls-1" d="M792.043,4326.59H779.986a8,8,0,0,1-7.967-8.02v-12.14a8.006,8.006,0,0,1,7.967-8.03h12.057a8.006,8.006,0,0,1,7.967,8.03v12.14A8,8,0,0,1,792.043,4326.59Zm-12.057-25.77a5.59,5.59,0,0,0-5.567,5.61v12.14a5.6,5.6,0,0,0,5.567,5.61h12.057a5.6,5.6,0,0,0,5.568-5.61v-12.14a5.591,5.591,0,0,0-5.568-5.61H779.986Zm6.029,18.9a7.22,7.22,0,1,1,7.167-7.22A7.2,7.2,0,0,1,786.015,4319.72Zm0-12.02a4.8,4.8,0,1,0,4.767,4.8A4.787,4.787,0,0,0,786.015,4307.7Zm9.2-2.83a1.723,1.723,0,1,1-1.723-1.74A1.73,1.73,0,0,1,795.212,4304.87Z" transform="translate(-772.031 -4298.41)"/>
</svg>
