<svg xmlns="http://www.w3.org/2000/svg" width="49.875" height="52.97" viewBox="0 0 49.875 52.97">
  <defs>
    <style>
      .cls-1 {
        fill: #b5241e;
        fill-rule: evenodd;
      }
    </style>
  </defs>
  <path id="health3.svg" class="cls-1" d="M859.793,2027.72a10.413,10.413,0,0,0-6.375-.22c0.122-.13.259-0.24,0.374-0.38a11.358,11.358,0,0,0,1.927-10.37,0.739,0.739,0,0,0-.088-0.15,0.576,0.576,0,0,0-.654-0.57,13.439,13.439,0,0,0-11.55,9.3,19.757,19.757,0,0,0-6.718-9.1,0.531,0.531,0,0,0-.582-0.07l-0.059.03a0.616,0.616,0,0,0-.115.09,0.4,0.4,0,0,0-.083.06,11.438,11.438,0,0,0-2.053,4.57,0.622,0.622,0,0,0,.145.61,0.642,0.642,0,0,0,.339.25,11.6,11.6,0,0,1,7.789,8.06c-4.276-.71-7.918-3.43-12.545-2.85a12.705,12.705,0,0,0-9.791,7.68c-4.781,10.38.733,22.83,7.477,31.01,3.532,4.28,6.815,3.81,11.653,2.2,3.506-1.17,5.885-.5,9.295.36a15.352,15.352,0,0,0,5.975.67c4.7-.75,7.728-6.48,9.419-10.4,2.49-5.77,4.411-11.7,4.228-18.06C867.649,2035.17,864.947,2029.68,859.793,2027.72Zm-5.318-10.23a9.822,9.822,0,0,1-2.11,9.15c-2.06,2.12-5.232,2.83-8.094,3.25a0.716,0.716,0,0,0,.024-0.19A11.807,11.807,0,0,1,854.475,2017.49Zm-19.154,3.18a10.165,10.165,0,0,1,1.182-2.85,17.857,17.857,0,0,1,5.869,8.94A13.06,13.06,0,0,0,835.321,2020.67Zm21.939,45.01c-4.606,4.32-9.735-.28-14.891-0.06-2.466.1-4.637,1.4-6.988,1.98-4.2,1.06-6.683-2-8.775-5.18-3.534-5.38-6.8-11.21-7.22-17.78s2.436-14.83,9.7-16.18c5.2-.97,9.182,2.52,14.125,2.9a0.7,0.7,0,0,0,.3.03,15.113,15.113,0,0,0,4.185-.77,16.129,16.129,0,0,0,1.932-.64c2.929-1.01,5.835-2.07,8.881-1.23,8.277,2.27,8.768,12.61,7.2,19.52C864.359,2054.19,861.767,2061.45,857.26,2065.68Zm-26.632-33.14c-4.676,1.93-7.039,7.86-6.252,12.63,0.146,0.88,1.481.51,1.336-.37-0.649-3.94,1.367-9.3,5.285-10.92C831.81,2033.55,831.454,2032.2,830.628,2032.54Zm-5.332,15.51a0.7,0.7,0,0,0,0,1.39A0.7,0.7,0,0,0,825.3,2048.05Z" transform="translate(-817.938 -2016.03)"/>
</svg>
